<?xml version="1.0" standalone="no"?><!DOCTYPE svg PUBLIC "-//W3C//DTD SVG 1.1//EN" "http://www.w3.org/Graphics/SVG/1.1/DTD/svg11.dtd"><svg t="1680772619063" class="icon" viewBox="0 0 1024 1024" version="1.1" xmlns="http://www.w3.org/2000/svg" p-id="2758" xmlns:xlink="http://www.w3.org/1999/xlink" width="200" height="200"><path d="M720.298667 768c-12.714667 0-23.850667-4.778667-33.408-14.293333L270.293333 337.066667c-19.072-19.114667-19.072-49.322667 0-66.816 19.114667-19.072 49.322667-19.072 66.816 0l416.597334 415.018666c19.072 19.072 19.072 49.28 0 66.773334-9.557333 11.136-22.272 15.914667-33.408 15.914666z" fill="#bfbfbf" p-id="2759"></path><path d="M303.701333 768c-12.714667 0-23.850667-4.778667-33.408-14.293333-19.072-19.114667-19.072-49.322667 0-66.816l415.018667-416.597334c19.072-19.072 49.28-19.072 66.773333 0 19.114667 19.114667 19.114667 49.322667 0 66.816l-414.976 416.597334a45.781333 45.781333 0 0 1-33.408 14.293333z" fill="#bfbfbf" p-id="2760"></path></svg>